<svg xmlns="http://www.w3.org/2000/svg" width="441.069" height="441.069" viewBox="0 0 441.069 441.069">
  <g id="_Group_" data-name="&lt;Group&gt;" transform="translate(-320.791 -278.842)" opacity="0.03">
    <g id="_Group_2" data-name="&lt;Group&gt;" transform="translate(510.872 318.185)">
      <path id="_Path_" data-name="&lt;Path&gt;" d="M402.173,348.458v19.052h34.7V348.458a30.458,30.458,0,1,0-34.7,0Z" transform="translate(-389.062 -292.973)" fill="#0b3855"/>
    </g>
    <g id="_Group_3" data-name="&lt;Group&gt;" transform="translate(401.6 412.858)">
      <path id="_Path_2" data-name="&lt;Path&gt;" d="M610.97,405.363l-.033-.035-.324-.435-1.653-2.178-1.634,2.178-.334.435-.035.035-.03.046c-13.856,20.444-19.87,33.438-17.915,38.627a3.372,3.372,0,0,0,2.246,2.224l.253.072h10.71c-3.651,27.1-19.207,48.007-46.285,62.181a138.548,138.548,0,0,1-39.686,13.294c-8.774-37.373-9.987-122.681-9.889-172.108h56.4a12.912,12.912,0,1,0,0-19.621H416.336a12.91,12.91,0,1,0,0,19.621h56.386c.1,49.428-1.11,134.735-9.883,172.108a138.635,138.635,0,0,1-39.69-13.294c-27.073-14.174-42.639-35.083-46.277-62.181h10.706l.253-.072a3.336,3.336,0,0,0,2.239-2.224c1.967-5.189-4.058-18.183-17.914-38.627l-.024-.046-.037-.035-.329-.435-1.643-2.178-1.654,2.178-.324.435-.035.035-.031.046c-13.84,20.444-19.87,33.438-17.9,38.627a3.337,3.337,0,0,0,2.23,2.224l.257.072h10.469c-.822,5.929-1.808,21.564,6.452,40.661,6.051,13.984,15.828,26.91,29.067,38.422,16.448,14.291,38.333,26.456,65.031,36.111,8.081,2.839,21.735,8.768,24.1,12.638l1.752,2.89,1.767-2.89c2.352-3.869,16.023-9.8,24.1-12.638,26.692-9.655,48.583-21.82,65.021-36.111,13.238-11.512,23.021-24.438,29.068-38.422,8.26-19.1,7.284-34.732,6.46-40.661h10.465l.253-.072a3.349,3.349,0,0,0,2.235-2.224c1.966-5.189-4.048-18.183-17.9-38.627Z" transform="translate(-349.815 -326.977)" fill="#0b3855"/>
    </g>
    <g id="_Group_4" data-name="&lt;Group&gt;" transform="translate(320.791 278.842)">
      <path id="_Compound_Path_" data-name="&lt;Compound Path&gt;" d="M220.534,441.069A218.915,218.915,0,0,1,95.22,401.876c-.291-.2-.585-.4-.87-.594s-.6-.4-.9-.614c-2.884-2.034-5.933-4.329-9.319-7.016-.328-.262-.664-.521-.989-.772-.463-.358-.94-.726-1.4-1.107a222.1,222.1,0,0,1-44.3-48.45c-2.224-3.306-4.416-6.772-6.515-10.3A219.6,219.6,0,0,1,7.583,277.879C6.477,273.766,5.5,269.7,4.681,265.8A220.321,220.321,0,0,1,36.234,99.573c3.9-5.917,8.114-11.7,12.534-17.19A221.63,221.63,0,0,1,103.614,33.64c4.521-2.849,9.235-5.577,14.012-8.109a219.856,219.856,0,0,1,205.815,0c4.8,2.54,9.517,5.268,14.027,8.109a221.38,221.38,0,0,1,54.822,48.743c4.41,5.461,8.632,11.245,12.547,17.19A220.358,220.358,0,0,1,436.39,265.8c-.82,3.925-1.8,7.991-2.9,12.083a218.943,218.943,0,0,1-23.331,55.142c-2.109,3.533-4.3,7-6.508,10.3a222.22,222.22,0,0,1-44.315,48.45c-.479.392-.969.77-1.442,1.136l-.016.012c-.313.242-.626.484-.938.731-3.256,2.594-6.3,4.889-9.307,7.016-.252.175-.5.344-.756.512-.338.226-.681.456-1.018.7A218.9,218.9,0,0,1,220.534,441.069ZM151.45,400.142a28.683,28.683,0,0,0-19.172,7.359,5.875,5.875,0,0,1-1.511.977,207.844,207.844,0,0,0,179.545,0,5.62,5.62,0,0,1-1.508-.977,28.645,28.645,0,0,0-38.339,0,6.067,6.067,0,0,1-8.151,0,28.714,28.714,0,0,0-19.174-7.359,27.66,27.66,0,0,0-4.588.4c3.77-1.676,8.024-3.377,11.975-4.794,2.982-1.058,6.107-2.245,10.131-3.846a41.952,41.952,0,0,1,5.723,3.308,40.792,40.792,0,0,1,46.485,0,40.729,40.729,0,0,1,23.249-7.269,39.278,39.278,0,0,1,7.319.691l.328-.233c.2-.139.394-.279.584-.421a209.244,209.244,0,0,0,47.352-48.83,29.955,29.955,0,0,0-3.217-.2,28.71,28.71,0,0,0-19.172,7.377,6.1,6.1,0,0,1-8.149,0,28.53,28.53,0,0,0-31.525-4.551,139.058,139.058,0,0,0,13.5-14.98,40.681,40.681,0,0,1,22.106,7.222,40.616,40.616,0,0,1,33.638-5.9,207.173,207.173,0,0,0,20.615-45.728,30.394,30.394,0,0,0-3.688,2.794,6.115,6.115,0,0,1-8.151,0,28.6,28.6,0,0,0-38.341,0,6.04,6.04,0,0,1-4.041,1.543,6.172,6.172,0,0,1-1.9-.3,102.382,102.382,0,0,0,2.676-14.05,40.659,40.659,0,0,1,45.686.506,40.8,40.8,0,0,1,11.857-5.633,208.951,208.951,0,0,0,5.287-46.715A206.225,206.225,0,0,0,386.292,94.493a28.528,28.528,0,0,0-16.984,7.267,6.107,6.107,0,0,1-8.149,0,28.626,28.626,0,0,0-38.341,0,6.1,6.1,0,0,1-8.144,0,28.518,28.518,0,0,0-32.578-4,66.639,66.639,0,0,0,4.643-14.606,40.54,40.54,0,0,1,32.011,6.3,40.757,40.757,0,0,1,46.485,0,40.719,40.719,0,0,1,12.281-5.741,209.1,209.1,0,0,0-53.586-44c-.132.107-.265.211-.4.316-.236.184-.479.375-.714.579a6.087,6.087,0,0,1-8.144,0A28.543,28.543,0,0,0,279.764,38a68.561,68.561,0,0,0-6.788-10.139,40.993,40.993,0,0,1,12.073-5.423,208.284,208.284,0,0,0-129.015,0A40.965,40.965,0,0,1,168.1,27.864,68.28,68.28,0,0,0,161.315,38a28.539,28.539,0,0,0-34.908,2.613,6.1,6.1,0,0,1-8.154,0c-.214-.189-.44-.368-.658-.54-.149-.118-.3-.235-.44-.354a209.273,209.273,0,0,0-53.6,44A40.751,40.751,0,0,1,75.84,89.459a40.753,40.753,0,0,1,46.482,0,40.523,40.523,0,0,1,32-6.3,67.066,67.066,0,0,0,4.656,14.606,28.514,28.514,0,0,0-32.575,4,6.113,6.113,0,0,1-8.154,0,28.623,28.623,0,0,0-38.339,0,6.11,6.11,0,0,1-8.151,0,28.922,28.922,0,0,0-16.984-7.267A206.24,206.24,0,0,0,12.2,220.537a208.654,208.654,0,0,0,5.29,46.715,40.983,40.983,0,0,1,11.857,5.633,40.667,40.667,0,0,1,45.69-.506,98.882,98.882,0,0,0,2.681,14.05,6.2,6.2,0,0,1-1.907.3,6.065,6.065,0,0,1-4.052-1.543,28.594,28.594,0,0,0-38.339,0,6.119,6.119,0,0,1-8.154,0,29.793,29.793,0,0,0-3.688-2.794A206.958,206.958,0,0,0,42.2,328.12a40.616,40.616,0,0,1,33.638,5.9A40.662,40.662,0,0,1,97.946,326.8a138.82,138.82,0,0,0,13.5,14.98,28.534,28.534,0,0,0-31.528,4.551,6.1,6.1,0,0,1-8.151,0,28.673,28.673,0,0,0-19.172-7.377,30.126,30.126,0,0,0-3.217.2,209.424,209.424,0,0,0,47.349,48.83c.145.106.293.21.44.314s.32.226.475.34a39.25,39.25,0,0,1,7.322-.691,40.722,40.722,0,0,1,23.246,7.269,40.8,40.8,0,0,1,46.49,0,41.544,41.544,0,0,1,5.728-3.307c3.974,1.587,7.1,2.773,10.126,3.846,3.964,1.424,8.217,3.126,11.975,4.794a27.542,27.542,0,0,0-4.593-.4A28.72,28.72,0,0,0,178.76,407.5a6.05,6.05,0,0,1-8.139,0A28.673,28.673,0,0,0,151.45,400.142Z" fill="#0b3855"/>
    </g>
  </g>
</svg>
