<svg xmlns="http://www.w3.org/2000/svg" width="166.908" height="167.212" viewBox="0 0 166.908 167.212">
  <g id="scroll-down" transform="translate(-4.9 -3.488)">
    <path id="Path_1" data-name="Path 1" d="M49.7,20.7a1.562,1.562,0,0,0,2.2.4c1-.5,1.1-1.1.7-1.7-.4-.8-1.1-.8-2.5-.5-2.2.5-3.3.2-4-1-.9-1.6-.1-3.1,1.5-4,2-1.1,3.4-.5,4.3.8l-1.7.9a1.279,1.279,0,0,0-1.9-.4,1.087,1.087,0,0,0-.6,1.6c.3.6.9.6,2.2.3,2.5-.6,3.5,0,4.2,1.2.8,1.4.5,3-1.7,4.3-1.8,1-3.5.8-4.6-.9Z" fill="#fff"/>
    <path id="Path_2" data-name="Path 2" d="M67.9,12.8A3.56,3.56,0,0,1,65.3,17c-2.9,1-4.6-.8-5.5-3.4s-.2-5.1,2.4-6c2.5-.8,3.9.4,4.5,1.8l-1.8.6a1.663,1.663,0,0,0-2.2-.9c-1.5.5-1.5,2.2-1,3.8.6,1.7,1.5,3.1,3.1,2.5A1.75,1.75,0,0,0,66,13.3Z" fill="#fff"/>
    <path id="Path_3" data-name="Path 3" d="M76.8,10l.5,3.9-1.9.2L74.2,4.6l3.9-.5c1.8-.2,3.2.5,3.4,2.2a2.08,2.08,0,0,1-1.2,2.4c1,.2,1.4.9,1.6,2.1V11c.1.8.3,1.6.4,2.2l-1.9.2a8.964,8.964,0,0,1-.5-2.2v-.3c-.1-1.1-.6-1.4-1.8-1.3Zm-.2-1.5L78,8.3c.9-.1,1.6-.5,1.5-1.5-.1-.9-.8-1.1-1.6-1L76.3,6Z" fill="#fff"/>
    <path id="Path_4" data-name="Path 4" d="M97.7,8.7c-.2,2.8-1.6,4.9-4.7,4.7-3-.2-4.1-2.5-3.9-5.3.1-2.4,1.6-4.8,4.7-4.6C96.6,3.8,97.8,6.2,97.7,8.7Zm-6.6-.4c-.1,1.9.5,3.5,2.1,3.6,1.7.1,2.4-1.3,2.5-3.3.1-1.8-.4-3.4-2.1-3.5C92,5.1,91.2,6.5,91.1,8.3Z" fill="#fff"/>
    <path id="Path_5" data-name="Path 5" d="M106.4,5.5l1.9.5-2,7.7,4.2,1.1-.6,1.5-5.8-1.5Z" fill="#fff"/>
    <path id="Path_6" data-name="Path 6" d="M120,9.7l1.8.8-3.3,7.3,3.9,1.7-.8,1.4-5.5-2.5Z" fill="#fff"/>
    <path id="Path_7" data-name="Path 7" d="M140.9,24.2l-2-1.7,1.1-1.2,5.4,4.7-1.1,1.2-2-1.7-5.2,6.1-1.5-1.3Z" fill="#fff"/>
    <path id="Path_8" data-name="Path 8" d="M152.6,41.2c-2.2,1.7-4.7,2.1-6.6-.3-1.9-2.3-.9-4.7,1.3-6.4,1.8-1.5,4.6-2,6.5.4C155.5,37.1,154.6,39.6,152.6,41.2Zm-4.1-5.1c-1.5,1.2-2.2,2.7-1.3,3.9,1,1.3,2.5.9,4.1-.4,1.4-1.1,2.2-2.5,1.1-3.9C151.5,34.5,149.9,34.9,148.5,36.1Z" fill="#fff"/>
    <path id="Path_9" data-name="Path 9" d="M160.9,45.5l1.6,3.1c.8,1.6.8,3.4-1,4.3s-3.4.1-4.3-1.7l-.7-1.2-3.3,1.7-.9-1.7ZM158,49.2l.6,1.1c.5.9,1.1,1.3,2.1.8.8-.4.9-1.2.4-2.1l-.6-1.2Z" fill="#fff"/>
    <path id="Path_10" data-name="Path 10" d="M165.5,72.8l-1.6.3-.7-3.6,1.6-.3Z" fill="#fff"/>
    <path id="Path_11" data-name="Path 11" d="M165.1,90.7a1.645,1.645,0,0,0-1.6,1.6c-.1,1.1.4,1.5,1.1,1.5.9.1,1.3-.4,1.7-1.8.8-2.2,1.6-2.9,3-2.8,1.8.1,2.6,1.6,2.5,3.4-.2,2.3-1.4,3.2-3,3.2l.1-1.9a1.288,1.288,0,0,0,1.3-1.4c.1-.9-.3-1.3-1-1.4-.7,0-.9.4-1.4,1.7-.9,2.4-1.9,3-3.3,2.9-1.6-.1-2.8-1.2-2.7-3.7.1-2.1,1.3-3.4,3.2-3.4Z" fill="#fff"/>
    <path id="Path_12" data-name="Path 12" d="M162,110.3a3.6,3.6,0,0,1-2.1-4.5c.8-2.9,3.2-3.4,5.8-2.7s4.4,2.6,3.7,5.3a3.321,3.321,0,0,1-4,2.8l.5-1.8a1.759,1.759,0,0,0,2-1.4c.4-1.5-1-2.5-2.7-2.9-1.8-.5-3.4-.4-3.8,1.2a1.837,1.837,0,0,0,1.1,2.2Z" fill="#fff"/>
    <path id="Path_13" data-name="Path 13" d="M159.5,119.3l-3.6-1.7.8-1.7,8.7,4.1-1.7,3.5c-.8,1.6-2.1,2.4-3.7,1.7a2.186,2.186,0,0,1-1.4-2.3,2.082,2.082,0,0,1-2.6.2l-.2-.1a9.117,9.117,0,0,0-2-.8l.8-1.7a7.172,7.172,0,0,1,2.1.8l.2.1c1,.5,1.5.3,2-.9Zm1.4.6-.6,1.3c-.4.8-.5,1.6.5,2.1.8.4,1.4-.1,1.7-.8l.7-1.6Z" fill="#fff"/>
    <path id="Path_14" data-name="Path 14" d="M149.2,137.5c-2.2-1.6-3.2-4-1.4-6.5,1.8-2.4,4.3-2,6.5-.4,1.9,1.4,3.1,3.9,1.3,6.4C153.9,139.3,151.3,139,149.2,137.5Zm3.9-5.3c-1.5-1.1-3.2-1.4-4.1-.2-1,1.3-.2,2.7,1.4,3.9,1.4,1.1,3,1.5,4,.1C155.4,134.7,154.6,133.3,153.1,132.2Z" fill="#fff"/>
    <path id="Path_15" data-name="Path 15" d="M147.2,146.6l-1.4,1.3-5.4-5.9-3.1,2.9-.9-1.3,4.4-4.1Z" fill="#fff"/>
    <path id="Path_16" data-name="Path 16" d="M136.4,155.7l-1.6,1.1-4.4-6.7-3.6,2.3L126,151l5-3.3Z" fill="#fff"/>
    <path id="Path_17" data-name="Path 17" d="M112.8,165.5l2.5-.7.5,1.5-6.9,2-.5-1.5,2.5-.7-2.3-7.6,1.9-.6Z" fill="#fff"/>
    <path id="Path_18" data-name="Path 18" d="M92.2,166c-.3-2.7.8-5.1,3.8-5.4,2.9-.3,4.4,1.8,4.7,4.6.2,2.4-.8,5-3.8,5.3C94,170.8,92.5,168.6,92.2,166Zm6.5-.6c-.2-1.9-1.1-3.3-2.6-3.2-1.7.2-2.1,1.6-1.9,3.6.2,1.8.9,3.2,2.6,3.1C98.4,168.7,98.9,167.2,98.7,165.4Z" fill="#fff"/>
    <path id="Path_19" data-name="Path 19" d="M84.1,170.7l-3.5-.3c-1.8-.2-3.3-1.2-3.1-3.2s1.7-2.9,3.8-2.7l1.4.1L83,161l2,.2Zm-1.6-4.5-1.3-.1c-1-.1-1.7.2-1.8,1.3-.1,1,.5,1.4,1.5,1.5l1.3.1Z" fill="#fff"/>
    <path id="Path_20" data-name="Path 20" d="M58.6,159.8l.6-1.5,3.4,1.3-.6,1.5Z" fill="#fff"/>
    <path id="Path_21" data-name="Path 21" d="M43.8,149.8a1.624,1.624,0,0,0-.5-2.2c-.9-.7-1.5-.5-1.9,0-.5.7-.3,1.3.6,2.4,1.4,1.8,1.5,2.9.7,4a2.821,2.821,0,0,1-4.2.3c-1.8-1.4-1.9-2.9-1.1-4.2l1.5,1.1a1.363,1.363,0,0,0,.4,1.9A1.135,1.135,0,0,0,41,153c.4-.6.2-1-.7-2.2-1.5-2-1.5-3.2-.6-4.3.9-1.3,2.6-1.7,4.6-.2,1.7,1.3,2.1,2.9,1.1,4.5Z" fill="#fff"/>
    <path id="Path_22" data-name="Path 22" d="M29,136.4a3.481,3.481,0,0,1,4.9.7c2,2.2,1.2,4.5-.8,6.4-2,1.8-4.6,2.3-6.5.3a3.257,3.257,0,0,1-.2-4.8l1.3,1.4a1.723,1.723,0,0,0,.1,2.4c1.1,1.2,2.6.5,3.9-.7s2.2-2.7,1-3.9a1.882,1.882,0,0,0-2.4-.3Z" fill="#fff"/>
    <path id="Path_23" data-name="Path 23" d="M22.9,129.5l3.4-2.1,1,1.6-8.1,5.1-2.1-3.3c-1-1.5-.9-3.1.6-4a2.217,2.217,0,0,1,2.7.1c-.2-1,.3-1.7,1.3-2.3l.2-.1a9.326,9.326,0,0,0,1.8-1.3l1,1.6a9.276,9.276,0,0,1-1.8,1.3l-.2.1c-.9.6-1,1.1-.4,2.2Zm-1.3.8-.8-1.2c-.5-.8-1.1-1.3-2-.7-.8.5-.7,1.2-.3,1.9l.9,1.5Z" fill="#fff"/>
    <path id="Path_24" data-name="Path 24" d="M13.1,111c2.6-1,5.1-.5,6.2,2.3,1,2.8-.6,4.8-3.2,5.7-2.2.8-5,.5-6.1-2.4C9,114,10.7,111.9,13.1,111Zm2.3,6.2c1.8-.7,2.9-1.9,2.4-3.3-.6-1.6-2.1-1.6-4-.9-1.7.6-2.9,1.7-2.3,3.3C12.1,117.7,13.7,117.8,15.4,117.2Z" fill="#fff"/>
    <path id="Path_25" data-name="Path 25" d="M6.5,104.4l-.3-1.9,7.9-1.4-.7-4.2,1.6-.1,1.1,5.9Z" fill="#fff"/>
    <path id="Path_26" data-name="Path 26" d="M6.8,78.9l-.3,2.6-1.6-.2.8-7.1,1.6.2L7,76.9l7.9.9-.2,2Z" fill="#fff"/>
    <path id="Path_27" data-name="Path 27" d="M14.3,59.7c2.6.8,4.4,2.7,3.5,5.6-.9,2.8-3.4,3.4-6,2.6-2.3-.7-4.3-2.7-3.4-5.6C9.2,59.6,11.8,59,14.3,59.7ZM12.4,66c1.8.6,3.5.3,4-1.2.5-1.6-.7-2.6-2.6-3.2-1.7-.5-3.4-.4-3.9,1.2S10.6,65.5,12.4,66Z" fill="#fff"/>
    <path id="Path_28" data-name="Path 28" d="M13.2,50.4l1.7-3.1c.9-1.6,2.4-2.5,4.1-1.6,1.8.9,2,2.7,1,4.6l-.7,1.2,3.3,1.8-1,1.7Zm4.8.4.6-1.1c.5-.9.5-1.7-.5-2.2-.8-.5-1.5-.1-2,.8l-.6,1.2Z" fill="#fff"/>
    <path id="Path_29" data-name="Path 29" d="M33.3,31.3l1.1,1.1L31.9,35l-1.1-1.1Z" fill="#fff"/>
  </g>
</svg>
