<svg xmlns="http://www.w3.org/2000/svg" width="353.069" height="353.069" viewBox="0 0 353.069 353.069">
  <g id="_Group_" data-name="&lt;Group&gt;" transform="translate(-320.791 -278.842)">
    <g id="_Group_2" data-name="&lt;Group&gt;" transform="translate(472.948 310.336)">
      <path id="_Path_" data-name="&lt;Path&gt;" d="M399.557,337.388v15.25H427.33v-15.25a24.381,24.381,0,1,0-27.773,0Z" transform="translate(-389.062 -292.973)" fill="#0b3855"/>
    </g>
    <g id="_Group_3" data-name="&lt;Group&gt;" transform="translate(385.477 386.12)">
      <path id="_Path_2" data-name="&lt;Path&gt;" d="M558.865,389.723l-.026-.028-.259-.348-1.323-1.743-1.308,1.743-.268.348-.028.028-.024.037c-11.091,16.365-15.906,26.766-14.341,30.92a2.7,2.7,0,0,0,1.8,1.78l.2.058h8.573c-2.923,21.692-15.375,38.429-37.05,49.775a110.905,110.905,0,0,1-31.768,10.642c-7.024-29.917-7.994-98.2-7.916-137.77h45.145a10.335,10.335,0,1,0,0-15.707H403.064a10.335,10.335,0,1,0,0,15.707H448.2c.083,39.566-.888,107.853-7.911,137.77a110.974,110.974,0,0,1-31.771-10.642c-21.671-11.346-34.132-28.083-37.044-49.775h8.57l.2-.058a2.671,2.671,0,0,0,1.792-1.78c1.575-4.154-3.248-14.555-14.34-30.92l-.02-.037-.029-.028-.263-.348L366.07,387.6l-1.324,1.743-.259.348-.028.028-.025.037c-11.078,16.365-15.906,26.766-14.327,30.92a2.672,2.672,0,0,0,1.785,1.78l.206.058h8.38c-.658,4.746-1.447,17.262,5.165,32.548,4.844,11.194,12.67,21.541,23.268,30.756,13.167,11.44,30.685,21.177,52.056,28.906,6.468,2.272,17.4,7.019,19.294,10.116l1.4,2.314,1.415-2.314c1.883-3.1,12.826-7.844,19.29-10.116,21.367-7.729,38.89-17.466,52.049-28.906,10.6-9.215,18.428-19.562,23.269-30.756,6.612-15.286,5.831-27.8,5.171-32.548h8.377l.2-.058a2.681,2.681,0,0,0,1.789-1.78c1.574-4.154-3.241-14.555-14.332-30.92Z" transform="translate(-349.815 -326.977)" fill="#0b3855"/>
    </g>
    <g id="_Group_4" data-name="&lt;Group&gt;" transform="translate(320.791 278.842)">
      <path id="_Compound_Path_" data-name="&lt;Compound Path&gt;" d="M176.534,353.069A175.238,175.238,0,0,1,76.222,321.7c-.233-.164-.468-.322-.7-.475s-.482-.324-.72-.492c-2.309-1.628-4.749-3.466-7.46-5.616-.263-.21-.532-.417-.792-.618-.371-.286-.753-.581-1.124-.886a177.79,177.79,0,0,1-35.463-38.783c-1.78-2.646-3.535-5.421-5.215-8.246A175.787,175.787,0,0,1,6.07,222.438c-.885-3.293-1.666-6.547-2.323-9.672A176.363,176.363,0,0,1,29,79.706c3.119-4.737,6.495-9.366,10.033-13.76a177.412,177.412,0,0,1,43.9-39.018c3.619-2.281,7.393-4.465,11.217-6.491a175.991,175.991,0,0,1,164.752,0c3.84,2.033,7.618,4.217,11.229,6.491a177.211,177.211,0,0,1,43.884,39.018c3.53,4.372,6.909,9,10.043,13.76a176.394,176.394,0,0,1,25.257,133.06c-.656,3.142-1.438,6.4-2.325,9.672a175.26,175.26,0,0,1-18.676,44.141c-1.688,2.828-3.441,5.6-5.209,8.246a177.884,177.884,0,0,1-35.473,38.783c-.384.314-.775.616-1.154.909l-.013.01c-.251.194-.5.388-.751.586-2.606,2.076-5.043,3.914-7.45,5.616-.2.14-.4.275-.605.41-.27.181-.545.365-.815.557A175.229,175.229,0,0,1,176.534,353.069Zm-55.3-32.761a22.96,22.96,0,0,0-15.347,5.891,4.7,4.7,0,0,1-1.21.782,166.376,166.376,0,0,0,143.723,0,4.5,4.5,0,0,1-1.207-.782,22.93,22.93,0,0,0-30.689,0,4.856,4.856,0,0,1-6.525,0,22.985,22.985,0,0,0-15.349-5.891,22.141,22.141,0,0,0-3.673.319c3.018-1.342,6.423-2.7,9.586-3.837,2.387-.847,4.888-1.8,8.11-3.079a33.584,33.584,0,0,1,4.581,2.648,32.654,32.654,0,0,1,37.21,0,32.6,32.6,0,0,1,18.61-5.819,31.439,31.439,0,0,1,5.859.554l.262-.187c.158-.112.316-.223.468-.337a167.5,167.5,0,0,0,37.9-39.088,23.971,23.971,0,0,0-2.575-.156,22.982,22.982,0,0,0-15.347,5.905,4.884,4.884,0,0,1-6.523,0,22.837,22.837,0,0,0-25.235-3.643,111.317,111.317,0,0,0,10.8-11.991,32.564,32.564,0,0,1,17.7,5.781,32.512,32.512,0,0,1,26.926-4.722,165.839,165.839,0,0,0,16.5-36.6,24.33,24.33,0,0,0-2.953,2.236,4.9,4.9,0,0,1-6.525,0,22.892,22.892,0,0,0-30.691,0,4.835,4.835,0,0,1-3.235,1.235,4.941,4.941,0,0,1-1.523-.24,81.953,81.953,0,0,0,2.142-11.247,32.547,32.547,0,0,1,36.571.405,32.661,32.661,0,0,1,9.492-4.509,167.263,167.263,0,0,0,4.232-37.395,165.08,165.08,0,0,0-34.083-100.9,22.836,22.836,0,0,0-13.6,5.817,4.888,4.888,0,0,1-6.523,0,22.915,22.915,0,0,0-30.691,0,4.883,4.883,0,0,1-6.519,0,22.828,22.828,0,0,0-26.078-3.2,53.343,53.343,0,0,0,3.717-11.692,32.452,32.452,0,0,1,25.625,5.045,32.625,32.625,0,0,1,37.211,0,32.6,32.6,0,0,1,9.831-4.6A167.382,167.382,0,0,0,259.3,31.8c-.105.085-.212.169-.319.253-.189.148-.384.3-.571.463a4.872,4.872,0,0,1-6.519,0,22.848,22.848,0,0,0-27.945-2.092,54.882,54.882,0,0,0-5.434-8.116,32.814,32.814,0,0,1,9.664-4.341,166.728,166.728,0,0,0-103.275,0,32.792,32.792,0,0,1,9.656,4.341,54.657,54.657,0,0,0-5.428,8.116,22.845,22.845,0,0,0-27.943,2.092,4.882,4.882,0,0,1-6.527,0c-.172-.151-.352-.294-.527-.432-.12-.095-.237-.188-.352-.284A167.52,167.52,0,0,0,50.874,67.015a32.62,32.62,0,0,1,9.835,4.6,32.622,32.622,0,0,1,37.208,0,32.438,32.438,0,0,1,25.619-5.045,53.686,53.686,0,0,0,3.727,11.692,22.825,22.825,0,0,0-26.076,3.2,4.893,4.893,0,0,1-6.527,0,22.912,22.912,0,0,0-30.689,0,4.891,4.891,0,0,1-6.525,0,23.152,23.152,0,0,0-13.6-5.817,165.092,165.092,0,0,0-34.081,100.9A167.025,167.025,0,0,0,14,213.931a32.806,32.806,0,0,1,9.492,4.509,32.554,32.554,0,0,1,36.575-.405,79.154,79.154,0,0,0,2.146,11.247,4.964,4.964,0,0,1-1.526.24,4.855,4.855,0,0,1-3.243-1.235,22.889,22.889,0,0,0-30.689,0,4.9,4.9,0,0,1-6.527,0,23.849,23.849,0,0,0-2.953-2.236,165.667,165.667,0,0,0,16.506,36.6,32.513,32.513,0,0,1,26.926,4.722A32.55,32.55,0,0,1,78.4,261.6a111.122,111.122,0,0,0,10.8,11.991A22.841,22.841,0,0,0,63.97,277.23a4.887,4.887,0,0,1-6.525,0A22.952,22.952,0,0,0,42.1,271.325a24.114,24.114,0,0,0-2.576.156,167.641,167.641,0,0,0,37.9,39.088c.116.085.234.168.352.251s.256.181.38.272a31.418,31.418,0,0,1,5.861-.554,32.6,32.6,0,0,1,18.608,5.819,32.66,32.66,0,0,1,37.214,0,33.254,33.254,0,0,1,4.585-2.648c3.181,1.27,5.681,2.22,8.106,3.079,3.173,1.14,6.578,2.5,9.586,3.837a22.047,22.047,0,0,0-3.677-.319,22.99,22.99,0,0,0-15.347,5.891,4.843,4.843,0,0,1-6.515,0A22.952,22.952,0,0,0,121.233,320.307Z" fill="#0b3855"/>
    </g>
  </g>
</svg>
